<svg xmlns="http://www.w3.org/2000/svg" width="364" height="457" fill="none"><path fill="#004DE6" d="M0 0h364v421H0z"/><g filter="url(#a)" opacity=".3"><circle cx="364.001" r="192.245" fill="#fff"/></g><path stroke="#fff" strokeWidthth=".5" d="M-46.43 187.18c19.264-7.705 73.357-23.116 135.617-23.116 77.825 0 80.908 33.134 166.438 33.134 68.425 0 135.874-27.74 161.045-41.61" opacity=".1"/><path stroke="#fff" strokeWidthth=".5" d="M-46.43 205.705c19.264-7.706 73.357-23.117 135.617-23.117 77.825 0 80.908 33.134 166.438 33.134 68.425 0 135.874-27.74 161.045-41.61" opacity=".1"/><path stroke="#fff" strokeWidthth=".5" d="M-46.43 224.229c19.264-7.705 73.357-23.116 135.617-23.116 77.825 0 80.908 33.133 166.438 33.133 68.425 0 135.874-27.739 161.045-41.609" opacity=".1"/><path stroke="#fff" strokeWidthth=".5" d="M-46.43 242.753c19.264-7.706 73.357-23.117 135.617-23.117 77.825 0 80.908 33.134 166.438 33.134 68.425 0 135.874-27.74 161.045-41.61" opacity=".1"/><path stroke="#fff" strokeWidthth=".5" d="M-46.43 261.277c19.264-7.705 73.357-23.116 135.617-23.116 77.825 0 80.908 33.133 166.438 33.133 68.425 0 135.874-27.74 161.045-41.609" opacity=".1"/><path stroke="#fff" strokeWidthth=".5" d="M-46.43 279.801c19.264-7.705 73.357-23.116 135.617-23.116 77.825 0 80.908 33.134 166.438 33.134 68.425 0 135.874-27.74 161.045-41.61" opacity=".1"/><path stroke="#fff" strokeWidthth=".5" d="M-46.43 298.325c19.264-7.706 73.357-23.117 135.617-23.117 77.825 0 80.908 33.134 166.438 33.134 68.425 0 135.874-27.74 161.045-41.61" opacity=".1"/><path stroke="#fff" strokeWidthth=".5" d="M-46.43 316.849c19.264-7.705 73.357-23.116 135.617-23.116 77.825 0 80.908 33.133 166.438 33.133 68.425 0 135.874-27.739 161.045-41.609" opacity=".1"/><path stroke="#fff" strokeWidthth=".5" d="M-46.43 335.374c19.264-7.706 73.357-23.117 135.617-23.117 77.825 0 80.908 33.134 166.438 33.134 68.425 0 135.874-27.74 161.045-41.61" opacity=".1"/><path stroke="#fff" strokeWidthth=".5" d="M-46.43 353.898c19.264-7.705 73.357-23.116 135.617-23.116 77.825 0 80.908 33.133 166.438 33.133 68.425 0 135.874-27.739 161.045-41.609" opacity=".1"/><path stroke="#fff" strokeWidthth=".5" d="M-46.43 372.423c19.264-7.706 73.357-23.117 135.617-23.117 77.825 0 80.908 33.134 166.438 33.134 68.425 0 135.874-27.74 161.045-41.61" opacity=".1"/><path stroke="#fff" strokeWidthth=".5" d="M-46.43 390.946c19.264-7.705 73.357-23.116 135.617-23.116 77.825 0 80.908 33.133 166.438 33.133 68.425 0 135.874-27.74 161.045-41.609" opacity=".1"/><path stroke="#fff" strokeWidthth=".5" d="M-46.43 409.47c19.264-7.705 73.357-23.116 135.617-23.116 77.825 0 80.908 33.134 166.438 33.134 68.425 0 135.874-27.74 161.045-41.61" opacity=".1"/><path stroke="#fff" strokeWidthth=".5" d="M-46.43 427.995c19.264-7.706 73.357-23.117 135.617-23.117 77.825 0 80.908 33.134 166.438 33.134 68.425 0 135.874-27.74 161.045-41.61" opacity=".1"/><path stroke="#fff" strokeWidthth=".5" d="M-46.43 446.518c19.264-7.705 73.357-23.116 135.617-23.116 77.825 0 80.908 33.133 166.438 33.133 68.425 0 135.874-27.739 161.045-41.609M-46.43 177.763c19.264-7.705 73.357-23.116 135.617-23.116 77.825 0 80.908 33.134 166.438 33.134 68.425 0 135.874-27.74 161.045-41.61" opacity=".1"/><path stroke="#fff" strokeWidthth=".5" d="M-46.43 196.288c19.264-7.706 73.357-23.117 135.617-23.117 77.825 0 80.908 33.134 166.438 33.134 68.425 0 135.874-27.74 161.045-41.61" opacity=".1"/><path stroke="#fff" strokeWidthth=".5" d="M-46.43 214.811c19.264-7.705 73.357-23.116 135.617-23.116 77.825 0 80.908 33.133 166.438 33.133 68.425 0 135.874-27.739 161.045-41.609" opacity=".1"/><path stroke="#fff" strokeWidthth=".5" d="M-46.43 233.336c19.264-7.706 73.357-23.117 135.617-23.117 77.825 0 80.908 33.134 166.438 33.134 68.425 0 135.874-27.74 161.045-41.61" opacity=".1"/><path stroke="#fff" strokeWidthth=".5" d="M-46.43 251.86c19.264-7.705 73.357-23.116 135.617-23.116 77.825 0 80.908 33.133 166.438 33.133 68.425 0 135.874-27.74 161.045-41.609" opacity=".1"/><path stroke="#fff" strokeWidthth=".5" d="M-46.43 270.384c19.264-7.705 73.357-23.116 135.617-23.116 77.825 0 80.908 33.134 166.438 33.134 68.425 0 135.874-27.74 161.045-41.61" opacity=".1"/><path stroke="#fff" strokeWidthth=".5" d="M-46.43 288.909c19.264-7.706 73.357-23.117 135.617-23.117 77.825 0 80.908 33.134 166.438 33.134 68.425 0 135.874-27.74 161.045-41.61" opacity=".1"/><path stroke="#fff" strokeWidthth=".5" d="M-46.43 307.432c19.264-7.705 73.357-23.116 135.617-23.116 77.825 0 80.908 33.133 166.438 33.133 68.425 0 135.874-27.739 161.045-41.609" opacity=".1"/><path stroke="#fff" strokeWidthth=".5" d="M-46.43 325.957c19.264-7.706 73.357-23.117 135.617-23.117 77.825 0 80.908 33.134 166.438 33.134 68.425 0 135.874-27.74 161.045-41.61" opacity=".1"/><path stroke="#fff" strokeWidthth=".5" d="M-46.43 344.481c19.264-7.705 73.357-23.116 135.617-23.116 77.825 0 80.908 33.133 166.438 33.133 68.425 0 135.874-27.739 161.045-41.609" opacity=".1"/><path stroke="#fff" strokeWidthth=".5" d="M-46.43 363.005c19.264-7.706 73.357-23.117 135.617-23.117 77.825 0 80.908 33.134 166.438 33.134 68.425 0 135.874-27.74 161.045-41.61" opacity=".1"/><path stroke="#fff" strokeWidthth=".5" d="M-46.43 381.529c19.264-7.705 73.357-23.116 135.617-23.116 77.825 0 80.908 33.133 166.438 33.133 68.425 0 135.874-27.74 161.045-41.609" opacity=".1"/><path stroke="#fff" strokeWidthth=".5" d="M-46.43 400.053c19.264-7.705 73.357-23.116 135.617-23.116 77.825 0 80.908 33.134 166.438 33.134 68.425 0 135.874-27.74 161.045-41.61" opacity=".1"/><path stroke="#fff" strokeWidthth=".5" d="M-46.43 418.578c19.264-7.706 73.357-23.117 135.617-23.117 77.825 0 80.908 33.134 166.438 33.134 68.425 0 135.874-27.74 161.045-41.61" opacity=".1"/><path stroke="#fff" strokeWidthth=".5" d="M-46.43 437.102c19.264-7.705 73.357-23.116 135.617-23.116 77.825 0 80.908 33.133 166.438 33.133 68.425 0 135.874-27.739 161.045-41.609M-46.43 168.346c19.264-7.705 73.357-23.116 135.617-23.116 77.825 0 80.908 33.134 166.438 33.134 68.425 0 135.874-27.74 161.045-41.61" opacity=".1"/><path stroke="#fff" strokeWidthth=".5" d="M-46.43 158.929c19.264-7.705 73.357-23.116 135.617-23.116 77.825 0 80.908 33.134 166.438 33.134 68.425 0 135.874-27.74 161.045-41.61" opacity=".1"/><path stroke="#fff" strokeWidthth=".5" d="M-46.43 149.512c19.264-7.705 73.357-23.116 135.617-23.116 77.825 0 80.908 33.134 166.438 33.134 68.425 0 135.874-27.74 161.045-41.61" opacity=".1"/><path stroke="#fff" strokeWidthth=".5" d="M-46.43 140.095c19.264-7.705 73.357-23.116 135.617-23.116 77.825 0 80.908 33.134 166.438 33.134 68.425 0 135.874-27.74 161.045-41.61" opacity=".1"/><path stroke="#fff" strokeWidthth=".5" d="M-46.43 130.678c19.264-7.705 73.357-23.116 135.617-23.116 77.825 0 80.908 33.134 166.438 33.134 68.425 0 135.874-27.74 161.045-41.61" opacity=".1"/><path stroke="#fff" strokeWidthth=".5" d="M-46.43 121.261c19.264-7.705 73.357-23.116 135.617-23.116 77.825 0 80.908 33.134 166.438 33.134 68.425 0 135.874-27.74 161.045-41.61" opacity=".1"/><path stroke="#fff" strokeWidthth=".5" d="M-46.43 111.844c19.264-7.705 73.357-23.116 135.617-23.116 77.825 0 80.908 33.134 166.438 33.134 68.425 0 135.874-27.74 161.045-41.61" opacity=".1"/><path stroke="#fff" strokeWidthth=".5" d="M-46.43 102.427c19.264-7.705 73.357-23.116 135.617-23.116 77.825 0 80.908 33.134 166.438 33.134 68.425 0 135.874-27.74 161.045-41.61" opacity=".1"/><path stroke="#fff" strokeWidthth=".5" d="M-46.43 93.01c19.264-7.705 73.357-23.116 135.617-23.116 77.825 0 80.908 33.134 166.438 33.134 68.425 0 135.874-27.74 161.045-41.61" opacity=".1"/><path stroke="#fff" strokeWidthth=".5" d="M-46.43 83.594c19.264-7.706 73.357-23.117 135.617-23.117 77.825 0 80.908 33.134 166.438 33.134 68.425 0 135.874-27.74 161.045-41.61" opacity=".1"/><path stroke="#fff" strokeWidthth=".5" d="M-46.43 74.177C-27.166 66.47 26.927 51.06 89.187 51.06c77.825 0 80.908 33.134 166.438 33.134 68.425 0 135.874-27.74 161.045-41.61" opacity=".1"/><path stroke="#fff" strokeWidthth=".5" d="M-46.43 64.76c19.264-7.706 73.357-23.117 135.617-23.117 77.825 0 80.908 33.134 166.438 33.134 68.425 0 135.874-27.74 161.045-41.61" opacity=".1"/><path stroke="#fff" strokeWidthth=".5" d="M-46.43 55.343c19.264-7.706 73.357-23.117 135.617-23.117 77.825 0 80.908 33.134 166.438 33.134 68.425 0 135.874-27.74 161.045-41.61" opacity=".1"/><path stroke="#fff" strokeWidthth=".5" d="M-46.43 45.925C-27.166 38.22 26.927 22.81 89.187 22.81c77.825 0 80.908 33.134 166.438 33.134 68.425 0 135.874-27.74 161.045-41.61" opacity=".1"/><path stroke="#fff" strokeWidthth=".5" d="M-46.43 36.508c19.264-7.705 73.357-23.116 135.617-23.116 77.825 0 80.908 33.134 166.438 33.134 68.425 0 135.874-27.74 161.045-41.61" opacity=".1"/><path stroke="#fff" strokeWidthth=".5" d="M-46.43 27.091C-27.166 19.386 26.927 3.976 89.187 3.976c77.825 0 80.908 33.134 166.438 33.134 68.425 0 135.874-27.74 161.045-41.61" opacity=".1"/><path stroke="#fff" strokeWidthth=".5" d="M-46.43 17.674C-27.166 9.97 26.927-5.442 89.187-5.442c77.825 0 80.908 33.134 166.438 33.134 68.425 0 135.874-27.74 161.045-41.61" opacity=".1"/><path stroke="#fff" strokeWidthth=".5" d="M-46.43 8.258C-27.166.552 26.927-14.86 89.187-14.86c77.825 0 80.908 33.134 166.438 33.134 68.425 0 135.874-27.74 161.045-41.61" opacity=".1"/><path stroke="#fff" strokeWidthth=".5" d="M-46.43-1.16c19.264-7.705 73.357-23.116 135.617-23.116 77.825 0 80.908 33.134 166.438 33.134 68.425 0 135.874-27.74 161.045-41.61" opacity=".1"/><defs><filter id="a" width="784.49" height="784.489" x="-28.244" y="-392.245" color-interpolation-filters="sRGB" filterUnits="userSpaceOnUse"><feFlood flood-opacity="0" result="BackgroundImageFix"/><feBlend in="SourceGraphic" in2="BackgroundImageFix" result="shape"/><feGaussianBlur result="effect1_foregroundBlur_209:2770" stdDeviation="100"/></filter></defs></svg>